
<svg version="1.0" xmlns="http://www.w3.org/2000/svg"
 width="200.000000pt" height="200.000000pt" viewBox="0 0 200.000000 200.000000"
 preserveAspectRatio="xMidYMid meet">

<g transform="translate(0.000000,200.000000) scale(0.100000,-0.100000)"
fill="#fff" stroke="none">
<path fill="#fff" d="M495 1310 c-35 -36 -37 -41 -23 -57 118 -139 269 -325 266 -328 -2
-3 -132 -49 -288 -103 -156 -55 -286 -104 -287 -109 -2 -6 16 -15 39 -21 59
-15 280 -42 343 -42 38 0 199 49 680 206 347 113 649 217 671 230 99 56 136
147 74 179 -17 9 -55 15 -92 15 -54 0 -110 -16 -363 -100 l-300 -100 -337 135
c-186 74 -339 135 -341 135 -2 0 -20 -18 -42 -40z"/>
<path fill="#fff" d="M27 950 c-15 -12 -27 -27 -27 -33 0 -16 139 -179 149 -175 4 2 54 19
109 38 56 19 102 37 101 40 0 4 -269 137 -298 148 -4 1 -20 -7 -34 -18z"/>
</g>
</svg>
