<?xml version="1.0" encoding="iso-8859-1"?>
<!-- Generator: Adobe Illustrator 18.1.1, SVG Export Plug-In . SVG Version: 6.00 Build 0)  -->
<svg xmlns="http://www.w3.org/2000/svg" xmlns:xlink="http://www.w3.org/1999/xlink" version="1.1" id="Capa_1" x="0px" y="0px" viewBox="0 0 611.999 611.999" style="enable-background:new 0 0 611.999 611.999;" xml:space="preserve" width="512px" height="512px">
<g>
	<path d="M611.347,198.507c-1.614-5.139-5.992-8.922-11.31-9.772l-208.551-33.428c-56.38-9.038-114.644-9.033-171.018,0.003   L11.964,188.733c-5.29,0.847-9.652,4.596-11.287,9.701c-1.634,5.102-0.259,10.69,3.559,14.45l89.285,88.02v72.422   c0,0.043,0.011,0.08,0.011,0.122c0.006,0.81,0.097,1.62,0.244,2.424c0.028,0.165,0.051,0.333,0.088,0.495   c0.142,0.642,0.315,1.282,0.549,1.91c0.04,0.108,0.111,0.296,0.216,0.551c0.009,0.02,0.017,0.04,0.026,0.06   c3.379,8.243,39.4,84.581,211.347,84.581c171.95,0,207.968-76.338,211.35-84.581c0.009-0.02,0.017-0.04,0.026-0.06   c0.105-0.256,0.176-0.441,0.216-0.551c0.233-0.625,0.406-1.265,0.549-1.91c0.037-0.162,0.057-0.33,0.088-0.495   c0.148-0.804,0.236-1.614,0.244-2.424c0-0.043,0.011-0.08,0.011-0.122v-74.272l89.177-86.065   C611.529,209.251,612.959,203.64,611.347,198.507z M195.71,204.914h63.466c4.965,0,9.326,2.555,11.867,6.415   c7.362-12.111,20.644-20.246,35.824-20.246c14.663,0,27.576,7.58,35.074,19.012c2.606-3.141,6.489-5.181,10.892-5.181h63.463   c7.85,0,14.211,6.361,14.211,14.211c0,7.85-6.361,14.211-14.211,14.211h-17.58c0.009,0.196,0.06,0.381,0.06,0.577   c0,7.85-6.361,14.211-14.211,14.211H371.44c-0.622,7.273-6.654,13.001-14.089,13.001h-4.519c-4.4,0-8.285-2.044-10.892-5.182   c-7.498,11.435-20.411,19.012-35.074,19.012c-15.181,0-28.46-8.135-35.824-20.246c-2.541,3.86-6.898,6.415-11.867,6.415h-4.522   c-7.435,0-13.467-5.727-14.089-13.001h-13.123c-7.85,0-14.211-6.361-14.211-14.211c0-0.199,0.051-0.381,0.06-0.577h-17.58   c-7.85,0-14.211-6.361-14.211-14.211C181.498,211.275,187.86,204.914,195.71,204.914z M490.058,359.114H121.944v-50.925h368.114   V359.114z M293.348,233.021c0-7.452,6.063-13.515,13.515-13.515s13.515,6.063,13.515,13.515s-6.063,13.515-13.515,13.515   S293.348,240.474,293.348,233.021z" fill="#FFFFFF"/>
</g>
<g>
</g>
<g>
</g>
<g>
</g>
<g>
</g>
<g>
</g>
<g>
</g>
<g>
</g>
<g>
</g>
<g>
</g>
<g>
</g>
<g>
</g>
<g>
</g>
<g>
</g>
<g>
</g>
<g>
</g>
</svg>
