<svg xmlns="http://www.w3.org/2000/svg" xmlns:xlink="http://www.w3.org/1999/xlink" class="stroke-lg" version="1.1" x="0px" y="0px" viewBox="7.5 7.5 50 50" enable-background="new 7.5 7.5 50 50" xml:space="preserve"><path d="M43.095,38.467h-2.402l1.469-1.958c0.165-0.221,0.12-0.534-0.101-0.7c-0.22-0.164-0.533-0.119-0.7,0.101l-1.919,2.558  h-4.487h-1.247l4.055-4.056l3.165,0.452c0.023,0.003,0.048,0.005,0.071,0.005c0.244,0,0.458-0.18,0.494-0.43  c0.039-0.273-0.151-0.526-0.425-0.565l-2.421-0.346l1.697-1.698c0.195-0.195,0.195-0.512,0-0.707s-0.512-0.195-0.707,0l-1.697,1.698  l-0.344-2.421c-0.039-0.273-0.301-0.466-0.565-0.425c-0.273,0.039-0.464,0.292-0.425,0.565l0.449,3.165l-3.17,3.171  c0,0.001-0.001,0.001-0.001,0.001l-0.882,0.882v-1.246v-4.487l2.554-1.918c0.222-0.166,0.266-0.479,0.1-0.7  c-0.165-0.221-0.479-0.265-0.699-0.1l-1.954,1.467v-2.399c0-0.276-0.224-0.5-0.5-0.5s-0.5,0.224-0.5,0.5v2.4l-1.958-1.468  c-0.22-0.166-0.534-0.121-0.7,0.1c-0.166,0.221-0.121,0.534,0.1,0.7l2.558,1.918v4.487v1.247l-0.883-0.883  c-0.001-0.001-0.003-0.002-0.004-0.003l-3.168-3.167l0.451-3.167c0.039-0.273-0.151-0.526-0.425-0.565  c-0.27-0.038-0.526,0.151-0.565,0.425l-0.345,2.423l-1.7-1.699c-0.195-0.195-0.512-0.195-0.707,0s-0.195,0.512,0,0.707l1.698,1.698  l-2.42,0.346c-0.273,0.039-0.463,0.292-0.424,0.565c0.036,0.25,0.25,0.43,0.495,0.43c0.023,0,0.047-0.002,0.071-0.005l3.163-0.452  l4.056,4.056h-1.248H25.56l-1.918-2.558c-0.167-0.222-0.479-0.267-0.7-0.101c-0.221,0.166-0.266,0.479-0.1,0.7l1.468,1.958h-2.403  c-0.276,0-0.5,0.224-0.5,0.5s0.224,0.5,0.5,0.5h2.403l-1.468,1.954c-0.166,0.221-0.121,0.534,0.1,0.699  c0.09,0.068,0.195,0.101,0.3,0.101c0.152,0,0.302-0.069,0.4-0.2l1.918-2.554h4.488h1.246l-4.056,4.056l-3.161-0.454  c-0.277-0.03-0.526,0.151-0.566,0.424c-0.039,0.273,0.151,0.527,0.424,0.566l2.42,0.348l-1.697,1.697  c-0.195,0.195-0.195,0.512,0,0.707c0.098,0.098,0.226,0.146,0.354,0.146s0.256-0.049,0.354-0.146l1.7-1.699l0.345,2.419  c0.036,0.25,0.25,0.43,0.495,0.43c0.023,0,0.047-0.002,0.071-0.005c0.273-0.039,0.463-0.292,0.424-0.565l-0.452-3.163l3.169-3.169  c0.001-0.001,0.002-0.001,0.003-0.002l0.883-0.883v1.248v4.487l-2.558,1.915c-0.221,0.166-0.266,0.479-0.101,0.7  c0.099,0.131,0.249,0.2,0.401,0.2c0.104,0,0.209-0.032,0.299-0.1l1.958-1.467v2.402c0,0.276,0.224,0.5,0.5,0.5s0.5-0.224,0.5-0.5  v-2.401l1.954,1.466c0.09,0.067,0.195,0.1,0.3,0.1c0.151,0,0.302-0.069,0.4-0.2c0.165-0.221,0.12-0.534-0.101-0.7l-2.554-1.915  v-4.487v-1.247l0.584,0.584l3.469,3.471l-0.449,3.161c-0.039,0.273,0.151,0.526,0.425,0.565c0.023,0.003,0.048,0.005,0.071,0.005  c0.244,0,0.459-0.18,0.494-0.43l0.344-2.417l1.697,1.697c0.098,0.098,0.226,0.146,0.354,0.146s0.256-0.049,0.354-0.146  c0.195-0.195,0.195-0.512,0-0.707l-1.696-1.697l2.421-0.348c0.273-0.039,0.463-0.293,0.424-0.566  c-0.04-0.274-0.298-0.456-0.566-0.424l-3.162,0.454l-3.173-3.174l0,0l-0.298-0.298l-0.584-0.584h1.245h4.487l1.92,2.555  c0.098,0.13,0.248,0.199,0.399,0.199c0.104,0,0.21-0.032,0.301-0.101c0.221-0.166,0.265-0.479,0.099-0.7l-1.468-1.953h2.402  c0.276,0,0.5-0.224,0.5-0.5S43.371,38.467,43.095,38.467z"></path><path d="M52.988,12.535h-7.736V8.814c0-0.276-0.224-0.5-0.5-0.5s-0.5,0.224-0.5,0.5v3.721H19.522V8.814c0-0.276-0.224-0.5-0.5-0.5  s-0.5,0.224-0.5,0.5v3.721h-6.511c-2.078,0-3.768,1.689-3.768,3.767v36.616c0,2.077,1.69,3.768,3.768,3.768h40.977  c2.077,0,3.768-1.69,3.768-3.768V16.302C56.756,14.225,55.065,12.535,52.988,12.535z M12.012,13.535h6.511v3.72  c0,0.276,0.224,0.5,0.5,0.5s0.5-0.224,0.5-0.5v-3.72h24.729v3.72c0,0.276,0.224,0.5,0.5,0.5s0.5-0.224,0.5-0.5v-3.72h7.736  c1.526,0,2.768,1.241,2.768,2.767v4.945H9.244v-4.945C9.244,14.776,10.486,13.535,12.012,13.535z M52.988,55.686H12.012  c-1.526,0-2.768-1.241-2.768-2.768V22.247h46.512v30.671C55.756,54.444,54.515,55.686,52.988,55.686z" ></path></svg>
